<svg width="365" height="166" viewBox="0 0 365 166" fill="none" xmlns="http://www.w3.org/2000/svg">
<g clip-path="url(#clip0_18_279)">
<g filter="url(#filter0_d_18_279)">
<path d="M4 14C4 6.26801 10.268 0 18 0H302C309.732 0 316 6.26801 316 14V143C316 150.732 309.732 157 302 157H18C10.268 157 4 150.732 4 143V14Z" fill="white"/>
<path d="M18 0.464844H302C309.475 0.464846 315.535 6.52458 315.535 14V143C315.535 150.475 309.475 156.535 302 156.535H18C10.5246 156.535 4.46484 150.475 4.46484 143V14C4.46484 6.52458 10.5246 0.464844 18 0.464844Z" stroke="#C6C6C6" stroke-width="0.929093"/>
</g>
<text fill="black" style="white-space: pre" xml:space="preserve" font-family="Sage UI" font-size="16.17" font-weight="bold" letter-spacing="0em"><tspan x="16" y="23.7578">CFO Dashboard</tspan></text>
<rect x="16.4197" y="32.4197" width="150.244" height="41.1283" rx="2.93773" fill="white" stroke="#E2E2E2" stroke-width="0.839352"/>
<text fill="black" style="white-space: pre" xml:space="preserve" font-family="Sage UI" font-size="8.39352" letter-spacing="0px"><tspan x="22.7971" y="47.1919">Assets</tspan></text>
<text fill="black" style="white-space: pre" xml:space="preserve" font-family="Sage UI" font-size="10.0722" font-weight="bold" letter-spacing="0px"><tspan x="22.7971" y="62.199">&#xa3;14,441K</tspan></text>
<g clip-path="url(#clip1_18_279)">
<rect width="7.81085" height="8.27032" transform="translate(72.1545 54.1659)" fill="white"/>
<line x1="76.044" y1="56.7366" x2="76.044" y2="61.2438" stroke="#00D639" stroke-width="1.34622" stroke-linecap="round"/>
<path d="M78.5872 57.6156L76.293 55.4015C76.1631 55.2761 75.9571 55.2761 75.8272 55.4015L73.5331 57.6156" stroke="#00D639" stroke-width="1.34779" stroke-linecap="round"/>
</g>
<text fill="black" style="white-space: pre" xml:space="preserve" font-family="Sage UI" font-size="8.39352" letter-spacing="0px"><tspan x="98.3386" y="47.1919">Revenue</tspan></text>
<text fill="black" style="white-space: pre" xml:space="preserve" font-family="Sage UI" font-size="10.0722" font-weight="bold" letter-spacing="0px"><tspan x="98.3386" y="62.199">&#xa3;74,472K</tspan></text>
<g clip-path="url(#clip2_18_279)">
<rect width="7.81085" height="8.27032" transform="translate(147.696 54.1659)" fill="white"/>
<line x1="151.585" y1="56.7366" x2="151.585" y2="61.2438" stroke="#00D639" stroke-width="1.34622" stroke-linecap="round"/>
<path d="M154.129 57.6156L151.835 55.4015C151.705 55.2761 151.499 55.2761 151.369 55.4015L149.075 57.6156" stroke="#00D639" stroke-width="1.34779" stroke-linecap="round"/>
</g>
<line x1="90.0726" y1="32" x2="90.0726" y2="73.9676" stroke="#E6EBED" stroke-width="0.419676"/>
<path d="M19.3574 80.3876H164.643C166.265 80.3876 167.58 81.7026 167.58 83.3251V144.61C167.58 146.233 166.265 147.548 164.643 147.548H19.3574C17.735 147.548 16.4199 146.233 16.4199 144.61V83.3251C16.4199 81.7026 17.735 80.3876 19.3574 80.3876Z" fill="white" stroke="#E2E2E2" stroke-width="0.839352"/>
<text fill="black" style="white-space: pre" xml:space="preserve" font-family="Sage UI" font-size="6.71482" font-weight="bold" letter-spacing="0px"><tspan x="23.7581" y="93.9503">Revenue per Retail Hour by Location</tspan></text>
<line x1="23.7581" y1="98.8925" x2="165.132" y2="98.8925" stroke="#CCD6DB" stroke-width="0.419676"/>
<rect x="78.1055" y="103.368" width="23.6216" height="37" fill="#F7F7F7"/>
<rect x="127.403" y="103.368" width="24.6486" height="37" fill="#F7F7F7"/>
<rect x="130.917" y="105.087" width="8.49057" height="78.4804" transform="rotate(90 130.917 105.087)" fill="#CBD95D"/>
<rect x="144.869" y="118.577" width="7.64151" height="92.4324" transform="rotate(90 144.869 118.577)" fill="#5DB2B1"/>
<rect x="115.221" y="131.968" width="8.49057" height="62.7843" transform="rotate(90 115.221 131.968)" fill="#ED7D43"/>
<text fill="black" style="white-space: pre" xml:space="preserve" font-family="Sage UI" font-size="5.03611" letter-spacing="0px"><tspan x="33.7745" y="110.036">London</tspan></text>
<text fill="black" style="white-space: pre" xml:space="preserve" font-family="Sage UI" font-size="5.03611" letter-spacing="0px"><tspan x="24.4736" y="123.036">Manchester</tspan></text>
<line x1="52.6244" y1="103.368" x2="52.6244" y2="140.368" stroke="#E6EBED" stroke-width="0.388889"/>
<line x1="52.4299" y1="140.174" x2="162.322" y2="140.174" stroke="#E6EBED" stroke-width="0.388889"/>
<text fill="black" style="white-space: pre" xml:space="preserve" font-family="Sage UI" font-size="5.03611" letter-spacing="0px"><tspan x="31.1487" y="139.294">Brighton</tspan></text>
<g filter="url(#filter1_d_18_279)">
<path d="M185.733 13.4409H325.987C332.246 13.441 337.32 18.5148 337.32 24.7739V152.071C337.32 158.33 332.246 163.404 325.987 163.404H185.733C179.474 163.404 174.4 158.33 174.4 152.071V24.7739C174.4 18.5148 179.474 13.4409 185.733 13.4409Z" fill="white" stroke="#E2E2E2" stroke-width="0.647611"/>
</g>
<mask id="mask0_18_279" style="mask-type:luminance" maskUnits="userSpaceOnUse" x="182" y="19" width="19" height="19">
<path d="M200.35 19.6481H182.377V37.6211H200.35V19.6481Z" fill="white"/>
</mask>
<g mask="url(#mask0_18_279)">
<path d="M198.254 19.6481H184.471C183.916 19.6481 183.385 19.8728 182.991 20.262C182.602 20.6555 182.377 21.1876 182.377 21.7455V35.5285C182.377 36.0822 182.602 36.6143 182.991 37.0069C183.385 37.4004 183.916 37.6217 184.471 37.6217H198.254C198.808 37.6217 199.339 37.3969 199.733 37.0069C200.125 36.6143 200.347 36.0822 200.347 35.5285V21.7455C200.347 21.191 200.122 20.6589 199.733 20.2663C199.339 19.8728 198.808 19.6524 198.254 19.6524V19.6481Z" fill="white"/>
<path d="M197.872 28.2983L197.082 28.542C196.802 28.6281 196.584 28.8485 196.498 29.1257L196.255 29.9161C196.112 30.3837 195.45 30.3837 195.307 29.9161L195.064 29.1257C194.978 28.845 194.757 28.6281 194.479 28.542L193.69 28.2983C193.222 28.1562 193.222 27.4933 193.69 27.3512L194.479 27.1075C194.76 27.0214 194.978 26.801 195.064 26.5237L195.307 25.7333C195.45 25.2658 196.112 25.2658 196.255 25.7333L196.498 26.5237C196.584 26.8044 196.805 27.0214 197.082 27.1075L197.872 27.3512C198.34 27.4933 198.34 28.1562 197.872 28.2983Z" fill="url(#paint0_radial_18_279)"/>
<path d="M188.601 21.4418C190.919 21.4418 192.806 23.045 192.847 25.2768C192.869 25.9053 192.413 26.2497 191.914 26.2497C191.417 26.2497 191.028 25.9018 191.005 25.3172C190.983 24.0593 189.923 23.1268 188.579 23.1268C187.32 23.1268 186.37 24.0145 186.37 25.2277C186.37 26.5493 187.256 27.134 189.099 27.8073C191.072 28.5228 192.869 29.3691 192.869 31.8816C192.869 34.072 191.159 35.8241 188.774 35.8241C186.389 35.8241 184.505 34.177 184.505 31.9453C184.505 30.5599 185.175 29.5827 185.826 29.5827C186.392 29.5827 186.736 29.9495 186.736 30.4471C186.736 30.8819 186.37 31.0765 186.37 31.8549C186.37 33.2411 187.497 34.1322 188.774 34.1322C190.118 34.1322 191.005 33.1998 191.005 32.0727C191.005 30.6873 190.118 30.0993 188.275 29.4518C186.215 28.7139 184.505 27.8262 184.505 25.3775C184.505 23.1681 186.279 21.4349 188.601 21.4349V21.4418Z" fill="url(#paint1_linear_18_279)"/>
</g>
<text fill="black" fill-opacity="0.9" style="white-space: pre" xml:space="preserve" font-family="Sage UI" font-size="10.392" font-weight="500" letter-spacing="0px"><tspan x="202.948" y="32.4089">Copilot</tspan></text>
<text opacity="0.9" fill="black" fill-opacity="0.9" style="white-space: pre" xml:space="preserve" font-family="Sage UI" font-size="8.90099" font-weight="500" letter-spacing="0px"><tspan x="193.211" y="56.1809">Welcome </tspan><tspan x="231.623" y="56.1809">back </tspan><tspan x="253.258" y="56.1809">!</tspan></text>
<text opacity="0.9" fill="black" fill-opacity="0.9" style="white-space: pre" xml:space="preserve" font-family="Sage UI" font-size="7.12079" letter-spacing="0px"><tspan x="193.211" y="70.955">View </tspan><tspan x="208.988" y="70.955">insights </tspan><tspan x="235.202" y="70.955">or </tspan><tspan x="243.308" y="70.955">start </tspan><tspan x="260.051" y="70.955">a </tspan><tspan x="265.424" y="70.955">chat </tspan><tspan x="280.999" y="70.955">by </tspan><tspan x="290.128" y="70.955">using </tspan><tspan x="193.211" y="81.955">one </tspan><tspan x="206.319" y="81.955">of </tspan><tspan x="214.358" y="81.955">the </tspan><tspan x="226.326" y="81.955">following </tspan><tspan x="256.019" y="81.955">suggestions</tspan></text>
<rect x="192.819" y="91.5456" width="125.992" height="15.026" rx="3.35919" fill="white"/>
<rect x="192.819" y="91.5456" width="125.992" height="15.026" rx="3.35919" stroke="black" stroke-width="0.784382"/>
<text opacity="0.7" fill="black" style="white-space: pre" xml:space="preserve" font-family="Sage UI" font-size="7.12079" font-weight="500" letter-spacing="0px"><tspan x="197.958" y="101.543">Show </tspan><tspan x="216.678" y="101.543">budget </tspan><tspan x="241.956" y="101.543">variance </tspan><tspan x="271.76" y="101.543">analysis </tspan><tspan x="299.562" y="101.543">YTD</tspan></text>
<rect x="192.819" y="111.128" width="74.4656" height="15.026" rx="3.35919" fill="white"/>
<rect x="192.819" y="111.128" width="74.4656" height="15.026" rx="3.35919" stroke="black" stroke-width="0.784382"/>
<text opacity="0.7" fill="black" style="white-space: pre" xml:space="preserve" font-family="Sage UI" font-size="7.12079" font-weight="500" letter-spacing="0px"><tspan x="197.958" y="121.126">Run </tspan><tspan x="212.089" y="121.126">close </tspan><tspan x="230.628" y="121.126">assistant</tspan></text>
<rect x="182.979" y="43.5356" width="142.928" height="88.8966" rx="6.82409" stroke="#DEDEDE" stroke-width="0.593399"/>
<path d="M267.933 20.5851H316.646C320.681 20.5853 323.953 23.8564 323.953 27.8917C323.953 31.927 320.681 35.1981 316.646 35.1984H267.933C263.898 35.1983 260.626 31.9272 260.626 27.8917C260.626 23.8563 263.898 20.5851 267.933 20.5851Z" stroke="url(#paint2_linear_18_279)" stroke-width="0.974248"/>
<g clip-path="url(#clip3_18_279)">
<path d="M273.017 27.8126L271.546 27.2322C271.384 27.1683 271.255 27.0398 271.191 26.8776L270.611 25.4061C270.401 24.8749 269.649 24.8749 269.44 25.4061L268.859 26.8776C268.795 27.0398 268.667 27.1681 268.505 27.2322L267.033 27.8126C266.502 28.0221 266.502 28.7738 267.033 28.9833L268.505 29.5637C268.667 29.6276 268.795 29.7561 268.859 29.9183L269.44 31.3898C269.649 31.921 270.401 31.921 270.611 31.3898L271.191 29.9183C271.255 29.7561 271.384 29.6278 271.546 29.5637L273.017 28.9833C273.549 28.7738 273.549 28.0221 273.017 27.8126Z" fill="black" fill-opacity="0.9"/>
<path d="M273.325 26.1978C273.934 26.1978 274.427 25.7045 274.427 25.096C274.427 24.4875 273.934 23.9943 273.325 23.9943C272.717 23.9943 272.223 24.4875 272.223 25.096C272.223 25.7045 272.717 26.1978 273.325 26.1978Z" fill="#00D639"/>
</g>
<text fill="black" fill-opacity="0.9" style="white-space: pre" xml:space="preserve" font-family="Sage UI" font-size="7.79398" font-weight="bold" letter-spacing="0em"><tspan x="277.026" y="31.0622">Insights</tspan></text>
<g clip-path="url(#clip4_18_279)">
<path d="M314.047 31.7882C316.199 31.7882 317.944 30.0435 317.944 27.8913C317.944 25.739 316.199 23.9943 314.047 23.9943C311.895 23.9943 310.15 25.739 310.15 27.8913C310.15 30.0435 311.895 31.7882 314.047 31.7882Z" fill="#D64309"/>
<path d="M313.008 29.2539V28.872C313.007 28.8602 313.009 28.8483 313.013 28.8374C313.018 28.8265 313.025 28.8169 313.035 28.8096L313.917 27.9523C314.197 27.6795 314.264 27.5548 314.264 27.4106C314.265 27.3695 314.257 27.3287 314.241 27.2907C314.226 27.2528 314.202 27.2186 314.172 27.1904C314.142 27.1622 314.107 27.1406 314.068 27.1271C314.029 27.1136 313.988 27.1084 313.947 27.1119C313.752 27.1119 313.6 27.2418 313.427 27.4587C313.422 27.4661 313.416 27.4724 313.408 27.4772C313.401 27.4821 313.393 27.4853 313.384 27.4868C313.375 27.4882 313.366 27.4879 313.357 27.4857C313.349 27.4836 313.341 27.4797 313.334 27.4743L312.944 27.2482C312.936 27.2442 312.929 27.2385 312.924 27.2315C312.919 27.2246 312.915 27.2165 312.913 27.208C312.911 27.1994 312.911 27.1906 312.913 27.1821C312.915 27.1735 312.919 27.1655 312.924 27.1586C313.034 26.9726 313.191 26.8192 313.379 26.7144C313.567 26.6096 313.781 26.5571 313.996 26.5624C314.53 26.5624 314.928 26.9014 314.928 27.3496C314.928 27.6652 314.764 27.8874 314.39 28.2589L313.842 28.8006H314.881C314.888 28.8 314.895 28.8009 314.901 28.8032C314.908 28.8055 314.914 28.8092 314.919 28.8139C314.924 28.8187 314.928 28.8245 314.931 28.8309C314.934 28.8373 314.935 28.8442 314.935 28.8512V29.2682C314.935 29.2826 314.929 29.2962 314.919 29.3064C314.909 29.3166 314.895 29.3224 314.881 29.3227H313.074C313.065 29.3236 313.055 29.3224 313.047 29.3192C313.038 29.316 313.03 29.3109 313.024 29.3043C313.018 29.2977 313.013 29.2897 313.01 29.281C313.007 29.2723 313.006 29.263 313.008 29.2539Z" fill="white"/>
</g>
<rect x="182.732" y="139.338" width="51.663" height="16.2774" rx="8.13869" stroke="black" stroke-opacity="0.65" stroke-width="0.707713"/>
<text fill="black" fill-opacity="0.7" style="white-space: pre" xml:space="preserve" font-family="Sage Text" font-size="8.58537" font-weight="500" letter-spacing="0px"><tspan x="190.705" y="150.799">New chat</tspan></text>
</g>
<defs>
<filter id="filter0_d_18_279" x="0" y="-2" width="320" height="165" filterUnits="userSpaceOnUse" color-interpolation-filters="sRGB">
<feFlood flood-opacity="0" result="BackgroundImageFix"/>
<feColorMatrix in="SourceAlpha" type="matrix" values="0 0 0 0 0 0 0 0 0 0 0 0 0 0 0 0 0 0 127 0" result="hardAlpha"/>
<feOffset dy="2"/>
<feGaussianBlur stdDeviation="2"/>
<feComposite in2="hardAlpha" operator="out"/>
<feColorMatrix type="matrix" values="0 0 0 0 0 0 0 0 0 0 0 0 0 0 0 0 0 0 0.15 0"/>
<feBlend mode="normal" in2="BackgroundImageFix" result="effect1_dropShadow_18_279"/>
<feBlend mode="normal" in="SourceGraphic" in2="effect1_dropShadow_18_279" result="shape"/>
</filter>
<filter id="filter1_d_18_279" x="172.35" y="13.1167" width="167.02" height="154.063" filterUnits="userSpaceOnUse" color-interpolation-filters="sRGB">
<feFlood flood-opacity="0" result="BackgroundImageFix"/>
<feColorMatrix in="SourceAlpha" type="matrix" values="0 0 0 0 0 0 0 0 0 0 0 0 0 0 0 0 0 0 127 0" result="hardAlpha"/>
<feOffset dy="1.72599"/>
<feGaussianBlur stdDeviation="0.862997"/>
<feComposite in2="hardAlpha" operator="out"/>
<feColorMatrix type="matrix" values="0 0 0 0 0 0 0 0 0 0 0 0 0 0 0 0 0 0 0.15 0"/>
<feBlend mode="normal" in2="BackgroundImageFix" result="effect1_dropShadow_18_279"/>
<feBlend mode="normal" in="SourceGraphic" in2="effect1_dropShadow_18_279" result="shape"/>
</filter>
<radialGradient id="paint0_radial_18_279" cx="0" cy="0" r="1" gradientTransform="matrix(3.34332 3.83117 -3.67792 3.20959 193.73 25.4303)" gradientUnits="userSpaceOnUse">
<stop offset="0.34" stop-color="#9D60FF"/>
<stop offset="0.52" stop-color="#5A99F1"/>
<stop offset="0.59" stop-color="#32B3E8"/>
<stop offset="0.68" stop-color="#0DCCE0"/>
<stop offset="0.72" stop-color="#00D6DE"/>
<stop offset="0.74" stop-color="#00D6D7"/>
<stop offset="0.77" stop-color="#00D6C6"/>
<stop offset="0.81" stop-color="#00D6AA"/>
<stop offset="0.84" stop-color="#00D682"/>
<stop offset="0.88" stop-color="#00D650"/>
<stop offset="0.9" stop-color="#00D639"/>
</radialGradient>
<linearGradient id="paint1_linear_18_279" x1="191.177" y1="21.5167" x2="186.339" y2="35.36" gradientUnits="userSpaceOnUse">
<stop offset="0.27" stop-color="#9D60FF"/>
<stop offset="0.33" stop-color="#7C78F8"/>
<stop offset="0.48" stop-color="#29B7E6"/>
<stop offset="0.54" stop-color="#00D6DE"/>
<stop offset="0.57" stop-color="#00D6DA"/>
<stop offset="0.59" stop-color="#00D6D0"/>
<stop offset="0.6" stop-color="#00D6C0"/>
<stop offset="0.62" stop-color="#00D6A8"/>
<stop offset="0.63" stop-color="#00D68A"/>
<stop offset="0.65" stop-color="#00D665"/>
<stop offset="0.66" stop-color="#00D639"/>
</linearGradient>
<linearGradient id="paint2_linear_18_279" x1="260.139" y1="35.6857" x2="324.44" y2="35.6857" gradientUnits="userSpaceOnUse">
<stop stop-color="#00D639"/>
<stop offset="0.512152" stop-color="#11AFFF"/>
<stop offset="1" stop-color="#8F49FE"/>
</linearGradient>
<clipPath id="clip0_18_279">
<rect width="365" height="166" fill="white"/>
</clipPath>
<clipPath id="clip1_18_279">
<rect width="7.81085" height="8.27032" fill="white" transform="translate(72.1545 54.1659)"/>
</clipPath>
<clipPath id="clip2_18_279">
<rect width="7.81085" height="8.27032" fill="white" transform="translate(147.696 54.1659)"/>
</clipPath>
<clipPath id="clip3_18_279">
<rect width="7.79398" height="7.79398" fill="white" transform="translate(266.635 23.9943)"/>
</clipPath>
<clipPath id="clip4_18_279">
<rect width="7.79398" height="7.79398" fill="white" transform="translate(310.15 23.9943)"/>
</clipPath>
</defs>
</svg>
